<svg width="28" height="28" viewBox="0 0 28 28" fill="none" xmlns="http://www.w3.org/2000/svg">
<path d="M13.9887 2.99951C7.85756 2.99951 2.88867 7.96951 2.88867 14.0995C2.88867 18.8017 5.81423 22.8217 9.94423 24.4395C9.84645 23.5617 9.75978 22.2106 9.98201 21.2528C10.1842 20.3862 11.2842 15.7351 11.2842 15.7351C11.2842 15.7351 10.952 15.0695 10.952 14.0862C10.952 12.544 11.8464 11.3917 12.9609 11.3917C13.9087 11.3917 14.3653 12.1028 14.3653 12.9551C14.3653 13.9084 13.7587 15.3317 13.4464 16.6517C13.1853 17.7562 14.0009 18.6573 15.0898 18.6573C17.062 18.6573 18.5798 16.5773 18.5798 13.574C18.5798 10.9162 16.6698 9.0584 13.9431 9.0584C10.7842 9.0584 8.92978 11.4273 8.92978 13.8751C8.92978 14.8284 9.29756 15.8517 9.75645 16.4084C9.79544 16.4503 9.82298 16.5016 9.83641 16.5572C9.84984 16.6129 9.84871 16.6711 9.83312 16.7262C9.74867 17.0762 9.56089 17.8306 9.52534 17.9851C9.47645 18.1884 9.36423 18.2317 9.15312 18.134C7.76756 17.4884 6.90089 15.4617 6.90089 13.8328C6.90089 10.3317 9.44423 7.11618 14.2353 7.11618C18.0865 7.11618 21.0787 9.85951 21.0787 13.5273C21.0787 17.354 18.6665 20.4306 15.3187 20.4306C14.1931 20.4306 13.1365 19.8473 12.7742 19.1573L12.082 21.7951C11.832 22.7595 11.1553 23.9684 10.7031 24.7062C11.7677 25.0348 12.8756 25.2015 13.9898 25.2006C20.1198 25.2006 25.0898 20.2306 25.0898 14.1006C25.0898 7.97062 20.1187 2.99951 13.9887 2.99951Z" fill="white"/>
</svg>
