<svg width="27" height="28" viewBox="0 0 27 28" fill="none" xmlns="http://www.w3.org/2000/svg">
<path d="M13.3331 8.97388C11.9705 8.97388 10.6637 9.51518 9.70013 10.4787C8.73661 11.4422 8.19531 12.749 8.19531 14.1117C8.19531 15.4743 8.73661 16.7811 9.70013 17.7446C10.6637 18.7081 11.9705 19.2494 13.3331 19.2494C14.6957 19.2494 16.0025 18.7081 16.966 17.7446C17.9296 16.7811 18.4709 15.4743 18.4709 14.1117C18.4709 12.749 17.9296 11.4422 16.966 10.4787C16.0025 9.51518 14.6957 8.97388 13.3331 8.97388ZM13.3331 17.4483C12.4479 17.4483 11.5989 17.0967 10.9729 16.4707C10.347 15.8448 9.99531 14.9958 9.99531 14.1105C9.99531 13.2253 10.347 12.3763 10.9729 11.7504C11.5989 11.1244 12.4479 10.7728 13.3331 10.7728C14.2183 10.7728 15.0673 11.1244 15.6933 11.7504C16.3192 12.3763 16.6709 13.2253 16.6709 14.1105C16.6709 14.9958 16.3192 15.8448 15.6933 16.4707C15.0673 17.0967 14.2183 17.4483 13.3331 17.4483Z" fill="white"/>
<path d="M18.6743 9.98296C19.3359 9.98296 19.8721 9.44669 19.8721 8.78518C19.8721 8.12367 19.3359 7.5874 18.6743 7.5874C18.0128 7.5874 17.4766 8.12367 17.4766 8.78518C17.4766 9.44669 18.0128 9.98296 18.6743 9.98296Z" fill="white"/>
<path d="M22.8148 7.56732C22.5576 6.90308 22.1645 6.29986 21.6608 5.79628C21.157 5.29269 20.5536 4.89985 19.8893 4.64288C19.1119 4.35105 18.2906 4.19326 17.4604 4.17621C16.3904 4.12954 16.0515 4.11621 13.3382 4.11621C10.6248 4.11621 10.277 4.11621 9.21594 4.17621C8.38637 4.19239 7.56567 4.35021 6.78927 4.64288C6.12476 4.89955 5.52123 5.29229 5.01742 5.79591C4.51361 6.29953 4.12064 6.9029 3.86372 7.56732C3.57183 8.34467 3.4144 9.16603 3.39816 9.99621C3.35038 11.0651 3.33594 11.404 3.33594 14.1184C3.33594 16.8318 3.33594 17.1773 3.39816 18.2407C3.41483 19.0718 3.57149 19.8918 3.86372 20.6707C4.12136 21.3348 4.51471 21.938 5.01864 22.4415C5.52258 22.9451 6.12601 23.338 6.79038 23.5951C7.56531 23.8987 8.38635 24.0677 9.21816 24.0951C10.2882 24.1418 10.627 24.1562 13.3404 24.1562C16.0537 24.1562 16.4015 24.1562 17.4626 24.0951C18.2927 24.0782 19.114 23.9208 19.8915 23.6295C20.5557 23.372 21.1589 22.9788 21.6626 22.4751C22.1663 21.9713 22.5595 21.3682 22.817 20.704C23.1093 19.9262 23.2659 19.1062 23.2826 18.2751C23.3304 17.2062 23.3448 16.8673 23.3448 14.1529C23.3448 11.4384 23.3448 11.094 23.2826 10.0307C23.2697 9.18874 23.1114 8.35538 22.8148 7.56732ZM21.4615 18.1584C21.4543 18.7988 21.3375 19.4331 21.1159 20.034C20.9491 20.4661 20.6936 20.8584 20.366 21.1859C20.0384 21.5133 19.6459 21.7685 19.2137 21.9351C18.6195 22.1556 17.9919 22.2725 17.3582 22.2807C16.3026 22.3295 16.0048 22.3418 13.2982 22.3418C10.5893 22.3418 10.3126 22.3418 9.23705 22.2807C8.60363 22.2729 7.9763 22.156 7.3826 21.9351C6.94892 21.7695 6.55483 21.5148 6.22582 21.1873C5.8968 20.8598 5.6402 20.4669 5.4726 20.034C5.25421 19.4396 5.13739 18.8127 5.12705 18.1795C5.07927 17.124 5.06816 16.8262 5.06816 14.1195C5.06816 11.4118 5.06816 11.1351 5.12705 10.0584C5.13423 9.41846 5.25111 8.78445 5.4726 8.18399C5.81149 7.30732 6.50594 6.61732 7.3826 6.28177C7.97659 6.06192 8.60374 5.94506 9.23705 5.93621C10.2937 5.88843 10.5904 5.8751 13.2982 5.8751C16.0059 5.8751 16.2837 5.8751 17.3582 5.93621C17.9919 5.94384 18.6197 6.06073 19.2137 6.28177C19.6459 6.44874 20.0383 6.70421 20.3659 7.0318C20.6935 7.35939 20.949 7.75185 21.1159 8.18399C21.3343 8.77838 21.4511 9.40528 21.4615 10.0384C21.5093 11.0951 21.5215 11.3918 21.5215 14.0995C21.5215 16.8062 21.5215 17.0973 21.4737 18.1595H21.4615V18.1584Z" fill="white"/>
</svg>
