<svg width="21" height="21" viewBox="0 0 21 21" fill="none" xmlns="http://www.w3.org/2000/svg">
<g clip-path="url(#clip0_116_238)">
<g filter="url(#filter0_d_116_238)">
<path d="M6.76598 13.5765H6.76694C6.76774 13.5765 6.76854 13.5763 6.76934 13.5763H17.9238C18.1984 13.5763 18.4399 13.3941 18.5153 13.1301L20.9763 4.51681C21.0293 4.33112 20.9921 4.13148 20.876 3.97736C20.7597 3.82323 20.5778 3.73254 20.3848 3.73254H5.34709L4.90729 1.75338C4.84465 1.47188 4.59503 1.27161 4.30664 1.27161H0.615234C0.275413 1.27161 0 1.54702 0 1.88684C0 2.22666 0.275413 2.50208 0.615234 2.50208H3.81317C3.89104 2.85279 5.91779 11.9733 6.03442 12.498C5.38058 12.7823 4.92187 13.4342 4.92187 14.1915C4.92187 15.2092 5.74988 16.0372 6.76758 16.0372H17.9238C18.2636 16.0372 18.5391 15.7618 18.5391 15.422C18.5391 15.0822 18.2636 14.8068 17.9238 14.8068H6.76758C6.4284 14.8068 6.15234 14.5307 6.15234 14.1915C6.15234 13.8528 6.42744 13.5773 6.76598 13.5765V13.5765ZM19.5691 4.96301L17.4597 12.3458H7.26105L5.62042 4.96301H19.5691Z" fill="#F63D3D"/>
<path d="M4.946 4.23254L4.859 3.841L4.41923 1.86199C4.40746 1.80907 4.36062 1.77161 4.30664 1.77161H0.615234C0.551556 1.77161 0.5 1.82316 0.5 1.88684C0.5 1.95052 0.551556 2.00208 0.615234 2.00208H3.81317H4.21434L4.30129 2.3937L6.52251 12.3895L6.61201 12.7922L6.23375 12.9566C5.7552 13.1646 5.42187 13.6411 5.42187 14.1915C5.42187 14.9331 6.02602 15.5372 6.76758 15.5372H17.9238C17.9875 15.5372 18.0391 15.4857 18.0391 15.422C18.0391 15.3583 17.9875 15.3068 17.9238 15.3068H6.76758C6.15226 15.3068 5.65234 14.8068 5.65234 14.1915C5.65234 13.5808 6.14469 13.0839 6.75372 13.0765C6.75741 13.0765 6.7611 13.0765 6.76479 13.0765M4.946 4.23254L6.76694 13.0765H6.76598M4.946 4.23254H5.34709M4.946 4.23254H5.34709M6.76479 13.0765L6.76598 13.5765V13.0765M6.76479 13.0765C6.76518 13.0765 6.76558 13.0765 6.76598 13.0765M6.76479 13.0765L6.76598 13.0765M5.34709 4.23254H20.3848C20.4207 4.23254 20.4547 4.24937 20.4767 4.27828C20.4985 4.30722 20.5055 4.3446 20.4955 4.37945C20.4955 4.37947 20.4955 4.37948 20.4955 4.3795L18.0346 12.9927M5.34709 4.23254L18.0346 12.9927M18.0346 12.9927L18.0346 12.9927L18.0346 12.9927ZM20.0499 5.10038L20.232 4.46301H19.5691H5.62042H4.99711L5.13233 5.07148L6.77295 12.4543L6.85996 12.8458H7.26105H17.4597H17.8368L17.9404 12.4832L20.0499 5.10038Z" stroke="black"/>
</g>
<path d="M6.15234 17.8827C6.15234 18.9004 6.98035 19.7284 7.99805 19.7284C9.01575 19.7284 9.84375 18.9004 9.84375 17.8827C9.84375 16.865 9.01575 16.037 7.99805 16.037C6.98035 16.037 6.15234 16.865 6.15234 17.8827ZM7.99805 17.2675C8.33723 17.2675 8.61328 17.5435 8.61328 17.8827C8.61328 18.2219 8.33723 18.4979 7.99805 18.4979C7.65887 18.4979 7.38281 18.2219 7.38281 17.8827C7.38281 17.5435 7.65887 17.2675 7.99805 17.2675Z" fill="#F63D3D"/>
<path d="M14.8477 17.8827C14.8477 18.9004 15.6757 19.7284 16.6934 19.7284C17.7111 19.7284 18.5391 18.9004 18.5391 17.8827C18.5391 16.865 17.7111 16.037 16.6934 16.037C15.6757 16.037 14.8477 16.865 14.8477 17.8827ZM16.6934 17.2675C17.0325 17.2675 17.3086 17.5435 17.3086 17.8827C17.3086 18.2219 17.0325 18.4979 16.6934 18.4979C16.3542 18.4979 16.0781 18.2219 16.0781 17.8827C16.0781 17.5435 16.3542 17.2675 16.6934 17.2675Z" fill="#F63D3D"/>
</g>
<defs>
<filter id="filter0_d_116_238" x="-4" y="1.27161" width="29" height="22.7656" filterUnits="userSpaceOnUse" color-interpolation-filters="sRGB">
<feFlood flood-opacity="0" result="BackgroundImageFix"/>
<feColorMatrix in="SourceAlpha" type="matrix" values="0 0 0 0 0 0 0 0 0 0 0 0 0 0 0 0 0 0 127 0" result="hardAlpha"/>
<feOffset dy="4"/>
<feGaussianBlur stdDeviation="2"/>
<feComposite in2="hardAlpha" operator="out"/>
<feColorMatrix type="matrix" values="0 0 0 0 0 0 0 0 0 0 0 0 0 0 0 0 0 0 0.25 0"/>
<feBlend mode="normal" in2="BackgroundImageFix" result="effect1_dropShadow_116_238"/>
<feBlend mode="normal" in="SourceGraphic" in2="effect1_dropShadow_116_238" result="shape"/>
</filter>
<clipPath id="clip0_116_238">
<rect width="21" height="21" fill="white"/>
</clipPath>
</defs>
</svg>
